<!--?xml version="1.0" encoding="UTF-8" standalone="no"?-->
<!-- Created with Inkscape (http://www.inkscape.org/) -->
<svg xmlns:inkscape="http://www.inkscape.org/namespaces/inkscape" xmlns:rdf="http://www.w3.org/1999/02/22-rdf-syntax-ns#" xmlns="http://www.w3.org/2000/svg" xmlns:cc="http://creativecommons.org/ns#" xmlns:dc="http://purl.org/dc/elements/1.1/" xmlns:sodipodi="http://sodipodi.sourceforge.net/DTD/sodipodi-0.dtd" xmlns:svg="http://www.w3.org/2000/svg" xmlns:ns1="http://sozi.baierouge.fr" xmlns:xlink="http://www.w3.org/1999/xlink" id="svg19746" sodipodi:docname="Neues Dokument 37" viewBox="0 0 125.93 132.8" version="1.1" inkscape:version="0.48.3.1 r9886" style="">
  <sodipodi:namedview id="base" bordercolor="#666666" inkscape:pageshadow="2" inkscape:window-y="0" fit-margin-left="0" pagecolor="#ffffff" fit-margin-top="0" inkscape:window-maximized="1" inkscape:zoom="0.98994949" inkscape:window-x="0" inkscape:window-height="1033" showgrid="false" borderopacity="1.0" inkscape:current-layer="layer1" inkscape:cx="124.63438" inkscape:cy="-88.872597" fit-margin-right="0" fit-margin-bottom="0" inkscape:window-width="1920" inkscape:pageopacity="0.0" inkscape:document-units="px"></sodipodi:namedview>
  <g id="layer1" inkscape:label="Ebene 1" inkscape:groupmode="layer" transform="translate(-13.587 -8.3382)">
    <g id="g3521" style="stroke:#000000;stroke-width:.41179;fill:none" transform="matrix(-3.1927 -3.66 -3.66 3.1927 6001.8 -282.27)">
      <path id="path3523" style="stroke:#000000;stroke-width:.41179;fill:none" inkscape:connector-curvature="0" d="m745.42 959.69c1.213-0.126 2.543-0.241 3.802-0.322 2.737-0.161 5.617-0.17 8.122 1.105 1.625 0.821 3.16 2.168 3.517 4.035 0.602 2.546 0.274 5.291-0.776 7.673-1.048 2.154-3.348 3.405-5.664 3.672-2.365 0.297-4.769-0.06-7.043-0.724-0.781-0.27-1.596-0.231-2.404-0.303-0.523-0.422 0.988-0.8 1.381-1.035 1.107-0.489 2.428-0.859 3.112-1.937 1.027-2.123 0.817-4.562 0.874-6.853 0.09-1.299-0.875-2.225-1.821-2.947-0.965-0.81-2.097-1.4-3.077-2.176l-0.03-0.09 0.01-0.1z" class="wDjykHLZ_0"></path>
      <path id="path3525" style="stroke:#000000;stroke-width:.41179;fill:none" inkscape:connector-curvature="0" d="m749.36 962.34c0.359-0.152 0.719-0.304 1.079-0.456 0.446 0.06 0.905 0.06 1.343 0.167 0.617 0.177 1.219 0.411 1.847 0.541 0.984 0.179 1.968 0.358 2.951 0.537" class="wDjykHLZ_1"></path>
      <path id="path3527" style="stroke:#000000;stroke-width:.41179;fill:none" inkscape:connector-curvature="0" d="m749.74 972.09c0.572 0.165 1.143 0.342 1.716 0.498 0.677-0.04 1.358-0.06 2.032-0.141 0.55-0.06 1.1-0.108 1.645-0.201 0.346-0.05 0.693-0.104 1.039-0.156" class="wDjykHLZ_2"></path>
      <path id="path3529" style="stroke:#000000;stroke-width:.41179;fill:none" inkscape:connector-curvature="0" d="m746.87 961.01c-0.36 0.03-0.72 0.05-1.079 0.08 0.09 0.279 0.02 0.396-0.269 0.28-0.312-0.05-0.623-0.104-0.935-0.155 0.1 0.193 0.194 0.387 0.291 0.581-0.457-0.03-0.913-0.06-1.37-0.08 0.01 0.235 0.03 0.47 0.04 0.705-0.443-0.05-0.886-0.111-1.328-0.166 0.221 0.249 0.442 0.498 0.664 0.747-0.706 0.111-1.411 0.221-2.117 0.332 0.235 0.263 0.47 0.526 0.706 0.789l-2.532 0.498c0.855 0.364 1.693 0.763 2.532 1.162 0.16 0.249 0.371 0.48 0.499 0.74 0 0.372 0.05 0.751 0.03 1.118-0.137 0.294-0.225 0.629-0.391 0.898-0.443 0.251-0.87 0.538-1.371 0.657-0.553 0.179-1.105 0.358-1.628 0.612 0.783 0.121 1.579 0.207 2.354 0.35l0.717 0.438c-0.207 0.18-0.415 0.36-0.622 0.54 0.567 0.07 1.134 0.138 1.701 0.207-0.235 0.194-0.47 0.388-0.705 0.581 0.484 0.1 0.968 0.194 1.452 0.291-0.29 0.166-0.581 0.332-0.871 0.498 0.65-0.03 1.3-0.05 1.95-0.08-0.318 0.194-0.636 0.387-0.954 0.581 0.581-0.03 1.162-0.06 1.743-0.08-0.277 0.138-0.554 0.277-0.83 0.415 0.548 0.01 1.107-0.02 1.649 0.02 0.07 0.04 0.146 0.07 0.218 0.108" class="wDjykHLZ_3"></path>
      <path id="path3531" style="stroke:#000000;stroke-width:.41179;fill:none" inkscape:connector-curvature="0" d="m678.81 1554.6-4.357 0.62-6.225-0.1-2.947 0.29 2.407 0.45 3.113 0.13 5.561 0.37 2.324 0.58" transform="translate(62.754 -588.49)" class="wDjykHLZ_4"></path>
    </g>
  </g>
  <metadata>
    <rdf:rdf>
      <cc:work>
        <dc:format>image/svg+xml</dc:format>
        <dc:type rdf:resource="http://purl.org/dc/dcmitype/StillImage"></dc:type>
        <cc:license rdf:resource="http://creativecommons.org/licenses/publicdomain/"></cc:license>
        <dc:publisher>
          <cc:agent rdf:about="http://openclipart.org/">
            <dc:title>Openclipart</dc:title>
          </cc:agent>
        </dc:publisher>
        <dc:title>Horseshoe Crab</dc:title>
        <dc:date>2013-01-27T07:25:06</dc:date>
        <dc:description></dc:description>
        <dc:source>https://openclipart.org/detail/174556/horseshoe-crab-by-gosc-174556</dc:source>
        <dc:creator>
          <cc:agent>
            <dc:title>Gosc</dc:title>
          </cc:agent>
        </dc:creator>
        <dc:subject>
          <rdf:bag>
            <rdf:li>Chelicerata</rdf:li>
            <rdf:li>Limulid</rdf:li>
            <rdf:li>Pfeilschwanzkrebs</rdf:li>
            <rdf:li>Xiphosura</rdf:li>
            <rdf:li>animal</rdf:li>
            <rdf:li>biology</rdf:li>
            <rdf:li>black and white</rdf:li>
            <rdf:li>contour</rdf:li>
            <rdf:li>evolution</rdf:li>
            <rdf:li>lebendes Fossil</rdf:li>
            <rdf:li>line art</rdf:li>
            <rdf:li>living fossil</rdf:li>
            <rdf:li>outline</rdf:li>
          </rdf:bag>
        </dc:subject>
      </cc:work>
      <cc:license rdf:about="http://creativecommons.org/licenses/publicdomain/">
        <cc:permits rdf:resource="http://creativecommons.org/ns#Reproduction"></cc:permits>
        <cc:permits rdf:resource="http://creativecommons.org/ns#Distribution"></cc:permits>
        <cc:permits rdf:resource="http://creativecommons.org/ns#DerivativeWorks"></cc:permits>
      </cc:license>
    </rdf:rdf>
  </metadata>
<style data-made-with="vivus-instant">.wDjykHLZ_0{stroke-dasharray:63 65;stroke-dashoffset:64;animation:wDjykHLZ_draw 1333ms ease-in 0ms forwards;}.wDjykHLZ_1{stroke-dasharray:8 10;stroke-dashoffset:9;animation:wDjykHLZ_draw 1333ms ease-in 166ms forwards;}.wDjykHLZ_2{stroke-dasharray:7 9;stroke-dashoffset:8;animation:wDjykHLZ_draw 1333ms ease-in 333ms forwards;}.wDjykHLZ_3{stroke-dasharray:40 42;stroke-dashoffset:41;animation:wDjykHLZ_draw 1333ms ease-in 500ms forwards;}.wDjykHLZ_4{stroke-dasharray:28 30;stroke-dashoffset:29;animation:wDjykHLZ_draw 1333ms ease-in 666ms forwards;}@keyframes wDjykHLZ_draw{100%{stroke-dashoffset:0;}}@keyframes wDjykHLZ_fade{0%{stroke-opacity:1;}100%{stroke-opacity:1;}100%{stroke-opacity:0;}}</style></svg>
