<svg width="200" height="200" xmlns="http://www.w3.org/2000/svg" style="">

 <metadata>image/svg+xmlOpenclipartHorseshoe Crab2013-01-27T07:25:06https://openclipart.org/detail/174556/horseshoe-crab-by-gosc-174556GoscChelicerataLimulidPfeilschwanzkrebsXiphosuraanimalbiologyblack and whitecontourevolutionlebendes Fossilline artliving fossiloutline</metadata>
 <g>
  <title>background</title>
  <path fill="none" id="canvas_background" height="202" width="202" d="M-1 -1 L201 -1 L201 201 L-1 201 Z" class="ULfwKptU_0"></path>
 </g>
 <g>
  <title>Layer 1</title>
  <g transform="rotate(45 99.00018310546878,99.50257873535158) " id="layer1">
   <g stroke="#000000" stroke-width="0.41179" fill="none" transform="matrix(-3.1927,-3.66,-3.66,3.1927,6001.8,-282.27) " id="g3521">
    <path stroke="#ffffff" stroke-width="0.25179" fill="none" d="m740.515617,959.599719c1.213,-0.126 2.543,-0.241 3.802,-0.322c2.737,-0.161 5.617,-0.17 8.122,1.105c1.625,0.821 3.16,2.168 3.517,4.035c0.602,2.546 0.274,5.291 -0.776,7.673c-1.048,2.154 -3.348,3.405 -5.664,3.672c-2.365,0.297 -4.769,-0.06 -7.043,-0.724c-0.781,-0.27 -1.596,-0.231 -2.404,-0.303c-0.523,-0.422 0.988,-0.8 1.381,-1.035c1.107,-0.489 2.428,-0.859 3.112,-1.937c1.027,-2.123 0.817,-4.562 0.874,-6.853c0.09,-1.299 -0.875,-2.225 -1.821,-2.947c-0.965,-0.81 -2.097,-1.4 -3.077,-2.176l-0.03,-0.09l0.01,-0.1l-0.003,0.002z" id="path3523" class="ULfwKptU_1"></path>
    <path stroke="#ffffff" stroke-width="0.25179" fill="none" d="m744.455617,962.249719c0.359,-0.152 0.719,-0.304 1.079,-0.456c0.446,0.06 0.905,0.06 1.343,0.167c0.617,0.177 1.219,0.411 1.847,0.541c0.984,0.179 1.968,0.358 2.951,0.537" id="path3525" class="ULfwKptU_2"></path>
    <path stroke="#ffffff" stroke-width="0.25179" fill="none" d="m744.835617,971.999719c0.572,0.165 1.143,0.342 1.716,0.498c0.677,-0.04 1.358,-0.06 2.032,-0.141c0.55,-0.06 1.1,-0.108 1.645,-0.201c0.346,-0.05 0.693,-0.104 1.039,-0.156" id="path3527" class="ULfwKptU_3"></path>
    <path stroke="#ffffff" stroke-width="0.25179" fill="none" d="m741.965617,960.919719c-0.36,0.03 -0.72,0.05 -1.079,0.08c0.09,0.279 0.02,0.396 -0.269,0.28c-0.312,-0.05 -0.623,-0.104 -0.935,-0.155c0.1,0.193 0.194,0.387 0.291,0.581c-0.457,-0.03 -0.913,-0.06 -1.37,-0.08c0.01,0.235 0.03,0.47 0.04,0.705c-0.443,-0.05 -0.886,-0.111 -1.328,-0.166c0.221,0.249 0.442,0.498 0.664,0.747c-0.706,0.111 -1.411,0.221 -2.117,0.332c0.235,0.263 0.47,0.526 0.706,0.789l-2.532,0.498c0.855,0.364 1.693,0.763 2.532,1.162c0.16,0.249 0.371,0.48 0.499,0.74c0,0.372 0.05,0.751 0.03,1.118c-0.137,0.294 -0.225,0.629 -0.391,0.898c-0.443,0.251 -0.87,0.538 -1.371,0.657c-0.553,0.179 -1.105,0.358 -1.628,0.612c0.783,0.121 1.579,0.207 2.354,0.35l0.717,0.438c-0.207,0.18 -0.415,0.36 -0.622,0.54c0.567,0.07 1.134,0.138 1.701,0.207c-0.235,0.194 -0.47,0.388 -0.705,0.581c0.484,0.1 0.968,0.194 1.452,0.291c-0.29,0.166 -0.581,0.332 -0.871,0.498c0.65,-0.03 1.3,-0.05 1.95,-0.08c-0.318,0.194 -0.636,0.387 -0.954,0.581c0.581,-0.03 1.162,-0.06 1.743,-0.08c-0.277,0.138 -0.554,0.277 -0.83,0.415c0.548,0.01 1.107,-0.02 1.649,0.02c0.07,0.04 0.146,0.07 0.218,0.108" id="path3529" class="ULfwKptU_4"></path>
    <path stroke="#ffffff" stroke-width="0.25179" fill="none" d="m736.659619,966.019729l-4.357,0.62l-6.225,-0.1l-2.947,0.29l2.407,0.45l3.113,0.13l5.561,0.37l2.324,0.58" id="path3531" class="ULfwKptU_5"></path>
   </g>
  </g>
 </g>
<style data-made-with="vivus-instant">.ULfwKptU_0{stroke-dasharray:808 810;stroke-dashoffset:809;animation:ULfwKptU_draw 2000ms ease-in 0ms forwards;}.ULfwKptU_1{stroke-dasharray:63 65;stroke-dashoffset:64;animation:ULfwKptU_draw 2000ms ease-in 200ms forwards;}.ULfwKptU_2{stroke-dasharray:8 10;stroke-dashoffset:9;animation:ULfwKptU_draw 2000ms ease-in 400ms forwards;}.ULfwKptU_3{stroke-dasharray:7 9;stroke-dashoffset:8;animation:ULfwKptU_draw 2000ms ease-in 600ms forwards;}.ULfwKptU_4{stroke-dasharray:40 42;stroke-dashoffset:41;animation:ULfwKptU_draw 2000ms ease-in 800ms forwards;}.ULfwKptU_5{stroke-dasharray:28 30;stroke-dashoffset:29;animation:ULfwKptU_draw 2000ms ease-in 1000ms forwards;}@keyframes ULfwKptU_draw{100%{stroke-dashoffset:0;}}@keyframes ULfwKptU_fade{0%{stroke-opacity:1;}94.44444444444444%{stroke-opacity:1;}100%{stroke-opacity:0;}}</style></svg>