<svg width="200" height="200" xmlns="http://www.w3.org/2000/svg">
 <metadata>image/svg+xmlOpenclipartHorseshoe Crab2013-01-27T07:25:06https://openclipart.org/detail/174556/horseshoe-crab-by-gosc-174556GoscChelicerataLimulidPfeilschwanzkrebsXiphosuraanimalbiologyblack and whitecontourevolutionlebendes Fossilline artliving fossiloutline</metadata>

 <g>
  <title>background</title>
  <rect x="-1" y="-1" width="202" height="202" id="canvas_background" fill="none"/>
 </g>
 <g>
  <title>Layer 1</title>
  <g id="layer1" transform="rotate(45 99.00018310546878,99.50257873535158) ">
   <g id="g3521" transform="matrix(-3.1927,-3.66,-3.66,3.1927,6001.8,-282.27) " fill="none" stroke-width="0.41179" stroke="#000000">
    <path id="path3523" d="m740.51562,959.59972c1.213,-0.126 2.543,-0.241 3.802,-0.322c2.737,-0.161 5.617,-0.17 8.122,1.105c1.625,0.821 3.16,2.168 3.517,4.035c0.602,2.546 0.274,5.291 -0.776,7.673c-1.048,2.154 -3.348,3.405 -5.664,3.672c-2.365,0.297 -4.769,-0.06 -7.043,-0.724c-0.781,-0.27 -1.596,-0.231 -2.404,-0.303c-0.523,-0.422 0.988,-0.8 1.381,-1.035c1.107,-0.489 2.428,-0.859 3.112,-1.937c1.027,-2.123 0.817,-4.562 0.874,-6.853c0.09,-1.299 -0.875,-2.225 -1.821,-2.947c-0.965,-0.81 -2.097,-1.4 -3.077,-2.176l-0.03,-0.09l0.01,-0.1l-0.003,0.002z" fill="none" stroke-width="0.25179" stroke="#6582a6"/>
    <path id="path3525" d="m744.45562,962.24972c0.359,-0.152 0.719,-0.304 1.079,-0.456c0.446,0.06 0.905,0.06 1.343,0.167c0.617,0.177 1.219,0.411 1.847,0.541c0.984,0.179 1.968,0.358 2.951,0.537" fill="none" stroke-width="0.25179" stroke="#6582a6"/>
    <path id="path3527" d="m744.83562,971.99972c0.572,0.165 1.143,0.342 1.716,0.498c0.677,-0.04 1.358,-0.06 2.032,-0.141c0.55,-0.06 1.1,-0.108 1.645,-0.201c0.346,-0.05 0.693,-0.104 1.039,-0.156" fill="none" stroke-width="0.25179" stroke="#6582a6"/>
    <path id="path3529" d="m741.96562,960.91972c-0.36,0.03 -0.72,0.05 -1.079,0.08c0.09,0.279 0.02,0.396 -0.269,0.28c-0.312,-0.05 -0.623,-0.104 -0.935,-0.155c0.1,0.193 0.194,0.387 0.291,0.581c-0.457,-0.03 -0.913,-0.06 -1.37,-0.08c0.01,0.235 0.03,0.47 0.04,0.705c-0.443,-0.05 -0.886,-0.111 -1.328,-0.166c0.221,0.249 0.442,0.498 0.664,0.747c-0.706,0.111 -1.411,0.221 -2.117,0.332c0.235,0.263 0.47,0.526 0.706,0.789l-2.532,0.498c0.855,0.364 1.693,0.763 2.532,1.162c0.16,0.249 0.371,0.48 0.499,0.74c0,0.372 0.05,0.751 0.03,1.118c-0.137,0.294 -0.225,0.629 -0.391,0.898c-0.443,0.251 -0.87,0.538 -1.371,0.657c-0.553,0.179 -1.105,0.358 -1.628,0.612c0.783,0.121 1.579,0.207 2.354,0.35l0.717,0.438c-0.207,0.18 -0.415,0.36 -0.622,0.54c0.567,0.07 1.134,0.138 1.701,0.207c-0.235,0.194 -0.47,0.388 -0.705,0.581c0.484,0.1 0.968,0.194 1.452,0.291c-0.29,0.166 -0.581,0.332 -0.871,0.498c0.65,-0.03 1.3,-0.05 1.95,-0.08c-0.318,0.194 -0.636,0.387 -0.954,0.581c0.581,-0.03 1.162,-0.06 1.743,-0.08c-0.277,0.138 -0.554,0.277 -0.83,0.415c0.548,0.01 1.107,-0.02 1.649,0.02c0.07,0.04 0.146,0.07 0.218,0.108" fill="none" stroke-width="0.25179" stroke="#6582a6"/>
    <path id="path3531" d="m736.65962,966.01973l-4.357,0.62l-6.225,-0.1l-2.947,0.29l2.407,0.45l3.113,0.13l5.561,0.37l2.324,0.58" fill="none" stroke-width="0.25179" stroke="#6582a6"/>
   </g>
  </g>
 </g>
</svg>